HIERARCHY
ROOT Hips
{
  OFFSET 52.2044 88.4352 165.029
  CHANNELS 6 Xposition Yposition Zposition Zrotation Xrotation Yrotation
  JOINT ToSpine
  {
    OFFSET -2.69724 7.43032 -0.144315
    CHANNELS 3 Zrotation Xrotation Yrotation
    JOINT Spine
    {
      OFFSET -0.0310711 10.7595 1.96963
      CHANNELS 3 Zrotation Xrotation Yrotation
      JOINT Spine1
      {
        OFFSET 19.9056 3.91189 0.764692
        CHANNELS 3 Zrotation Xrotation Yrotation
        JOINT Neck
        {
          OFFSET 25.9749 7.03908 -0.130764
          CHANNELS 3 Zrotation Xrotation Yrotation
          JOINT Head
          {
            OFFSET 9.52751 0.295786 -0.907742
            CHANNELS 3 Zrotation Xrotation Yrotation
            End Site
            {
              OFFSET 16.4037 0.713936 2.7358
            }
          }
        }
        JOINT LeftShoulder
        {
          OFFSET 17.7449 4.33886 11.7777
          CHANNELS 3 Zrotation Xrotation Yrotation
          JOINT LeftArm
          {
            OFFSET 0.911315 1.27913 9.80584
            CHANNELS 3 Zrotation Xrotation Yrotation
            JOINT LeftForeArm
            {
              OFFSET 28.6126 1.18197 -3.53199
              CHANNELS 3 Zrotation Xrotation Yrotation
              JOINT LeftHand
              {
                OFFSET 27.5088 0.0218783 0.327423
                CHANNELS 3 Zrotation Xrotation Yrotation
                End Site
                {
                  OFFSET 18.6038 -0.000155887 0.382096
                }
              }
            }
          }
        }
        JOINT RightShoulder
        {
          OFFSET 17.1009 2.89543 -12.2328
          CHANNELS 3 Zrotation Xrotation Yrotation
          JOINT RightArm
          {
            OFFSET 1.4228 0.178766 -10.211
            CHANNELS 3 Zrotation Xrotation Yrotation
            JOINT RightForeArm
            {
              OFFSET 28.733 1.87905 2.64907
              CHANNELS 3 Zrotation Xrotation Yrotation
              JOINT RightHand
              {
                OFFSET 27.4588 0.290562 -0.101845
                CHANNELS 3 Zrotation Xrotation Yrotation
                End Site
                {
                  OFFSET 17.8396 -0.255518 -0.000602873
                }
              }
            }
          }
        }
      }
    }
  }
  JOINT LeftUpLeg
  {
    OFFSET -5.61296 -2.22332 -10.2353
    CHANNELS 3 Zrotation Xrotation Yrotation
    JOINT LeftLeg
    {
      OFFSET 2.56703 -44.7417 -7.93097
      CHANNELS 3 Zrotation Xrotation Yrotation
      JOINT LeftFoot
      {
        OFFSET 3.16933 -46.5642 -3.96578
        CHANNELS 3 Zrotation Xrotation Yrotation
        JOINT LeftToeBase
        {
          OFFSET 0.346054 -6.02161 12.8035
          CHANNELS 3 Zrotation Xrotation Yrotation
          End Site
          {
            OFFSET 0.134235 -1.35082 5.13018
          }
        }
      }
    }
  }
  JOINT RightUpLeg
  {
    OFFSET -5.7928 -1.72406 10.6446
    CHANNELS 3 Zrotation Xrotation Yrotation
    JOINT RightLeg
    {
      OFFSET -2.57161 -44.7178 -7.85259
      CHANNELS 3 Zrotation Xrotation Yrotation
      JOINT RightFoot
      {
        OFFSET -3.10148 -46.5936 -4.03391
        CHANNELS 3 Zrotation Xrotation Yrotation
        JOINT RightToeBase
        {
          OFFSET -0.0828122 -6.13587 12.8035
          CHANNELS 3 Zrotation Xrotation Yrotation
          End Site
          {
            OFFSET -0.131328 -1.35082 5.13018
          }
        }
      }
    }
  }
}
MOTION
Frames:	17
Frame Time:	0.0333333
-2.43868 74.6381 42.3023 78.2063 -19.6109 -18.5554 -70.1915 0 88.8779 140.683 55.1692 -65.6646 8.85319 20.9243 -5.10826 -150.388 32.6756 150.843 170.235 72.8693 -143.446 1.20844 -8.75934 -22.526 -106.921 37.6859 -125.604 -4.22156 28.4384 8.7198 10.9191 -0.275032 -1.16621 0.0634219 0.618392 29.1033 -76.98 -50.8733 103.991 26.8457 -1.6525 88.0904 8.36611 0.408445 5.66471 -23.6766 17.2036 86.3726 -19.0401 76.6097 -6.90835 5.22246 -4.27937 -0.856734 -7.46015 -33.4192 17.6882 -4.65229 -5.34809 77.2608 165.597 67.4587 -153.79 -7.447 -3.34814 1.09639 11.4847 -25.3945 -14.8945 
-1.06475 74.9164 40.5489 73.977 -17.2954 -18.5798 -70.1915 0 88.8779 139.882 54.6023 -63.6098 9.33079 19.8976 -4.72243 -154.052 33.1157 151.279 171.122 72.727 -143.156 1.07616 -9.90696 -22.3661 -103.803 42.626 -136.537 -3.47669 26.278 8.56125 10.4929 -0.320513 -1.76039 0.0803765 0.422183 30.714 -78.6175 -50.3506 101.211 25.2858 -3.05964 84.4079 10.5435 0.488407 5.25879 -18.3235 15.1008 84.6617 -21.4712 77.9296 -3.92301 5.09211 -4.82137 -0.861105 -7.69464 -34.8971 16.9538 0.229131 -9.08837 69.2642 164.426 71.1726 -156.647 -6.84112 -4.67045 1.05589 11.3966 -24.7783 -15.3992 
0.577177 76.298 39.5371 72.5094 -15.588 -20.1155 -70.1915 0 88.8779 140.083 52.7662 -65.0362 9.88021 19.0333 -3.97723 -158.037 33.8728 153.129 171.329 72.8122 -142.099 0.931701 -11.1226 -23.0741 -97.9424 46.3485 -148.738 -3.29778 31.3209 6.66452 9.22562 -0.322059 -2.24304 0.040806 0.577024 31.9782 -80.2943 -49.19 98.4626 23.3321 -5.45319 77.3215 12.2237 0.486924 4.42676 -18.207 10.9683 84.9424 -19.6958 77.2147 -4.00582 5.74144 -5.49517 -0.927298 -7.57559 -33.8227 16.8272 0.970109 -12.2271 65.9368 161.734 75.589 -156.984 -7.16839 -6.75522 1.10152 11.2411 -23.5553 -16.3914 
2.64292 77.655 39.1122 70.3822 -15.0722 -22.7575 -70.1915 0 88.8779 139.917 51.904 -66.2492 9.99663 18.5455 -3.28215 -161.837 34.3741 155.217 172.936 73.0137 -144.209 0.772465 -12.5126 -22.6628 -90.3294 48.6685 -159.113 0.738822 33.1833 -3.42942 8.87205 -0.378494 -3.09621 -0.048416 0.967101 33.2503 -78.4337 -47.4296 98.6277 14.2457 -5.42951 67.0315 17.1563 0.430958 2.60245 -19.4919 8.31472 87.0531 -15.8055 74.9372 -6.10064 4.91794 -4.37034 -0.834051 -8.14062 -37.3615 15.7543 2.64423 -12.7424 66.5771 157.731 78.6266 -152.948 -7.25201 -5.70466 1.09798 11.1156 -24.4041 -14.1406 
5.09807 78.9929 39.2779 68.3589 -13.7572 -23.912 -70.1915 0 88.8779 139.15 51.3629 -63.7085 10.1827 17.4551 -3.40135 -164.358 34.9357 157.405 172.287 73.2783 -143.103 0.73208 -13.3405 -20.6651 -78.9709 43.1303 -169.194 7.55846 29.1414 -17.0201 8.8359 -0.552719 -5.28301 -0.177775 1.58454 33.6986 -77.1745 -47.0313 96.4861 11.2646 -5.32506 60.1194 16.4874 0.182753 0.948042 -20.0653 6.36757 87.5769 -13.5144 72.9935 -7.60938 6.2155 -4.82378 -0.949438 -8.2339 -37.9279 15.6335 3.63465 -12.7778 67.7125 150.877 81.8275 -147.534 -7.0087 -3.99899 1.0625 11.6245 -26.6998 -13.2616 
8.17337 80.4941 40.2968 66.8931 -15.1471 -27.2333 -70.1915 0 88.8779 138.301 51.3762 -62.888 9.73186 17.2528 -3.98723 -165.569 35.2245 159.791 172.19 73.5516 -143.021 0.850979 -12.3313 -19.703 -70.6349 32.3261 -173.745 13.8331 21.5706 -28.817 11.7689 -1.05121 -8.26166 -0.253496 1.92408 34.0534 -74.5143 -47.9794 94.7548 11.4527 -6.43935 55.0604 16.6384 0.343729 2.07973 -24.2473 6.43673 91.8076 -10.8837 69.7164 -10.173 5.72579 -4.86241 -0.91184 -8.52293 -38.7412 14.3406 2.08847 -11.8833 70.1775 138.76 84.4266 -136.866 -6.91699 -2.7703 1.0407 11.3376 -25.4861 -13.6475 
11.6704 81.9975 42.2819 64.1988 -18.137 -30.5789 -70.1915 0 88.8779 137.109 52.9805 -60.8847 8.54096 17.7901 -4.15934 -164.91 34.8953 162.076 177.098 73.813 -148.796 0.984489 -10.7572 -21.3806 -66.4188 32.2975 -169.398 16.3933 18.8671 -37.7537 13.0323 -1.18756 -8.4703 -0.426336 2.9507 32.9411 -70.1865 -50.6429 94.2685 5.80516 -2.85505 49.6081 14.765 0.413778 2.97134 -29.4403 7.25016 93.7493 -9.36767 66.1914 -15.2615 5.04673 -6.63667 -0.909453 -8.21367 -38.0861 15.9643 -1.60842 -10.2793 70.4791 102.383 86.4753 -100.694 -5.98 -3.5984 0.965018 8.66795 -13.5152 -15.3368 
15.4158 83.2327 45.1593 59.9202 -23.1464 -33.3868 -70.1915 0 88.8779 136.625 56.4809 -57.9837 9.24918 19.0811 -4.41572 -163.166 34.02 162.982 -179.514 73.2953 -152.593 1.17139 -9.18832 -23.8959 -63.9446 35.2492 -160.854 14.2679 17.2167 -35.5846 11.5657 -0.907371 -7.06125 -0.523925 3.5634 32.3903 -65.0772 -52.6912 96.8025 -5.20262 7.8866 44.7326 12.5101 0.263726 2.16847 -32.59 8.1873 91.3275 -9.66945 66.7625 -15.5009 2.49036 -8.05096 -0.821306 -7.51761 -35.2343 19.2112 -7.19003 -6.4363 68.9863 52.9576 85.523 -47.1153 -6.30114 -6.05488 1.03502 7.50565 -10.6875 -13.4357 
19.1274 83.7574 48.4818 56.5023 -27.8967 -35.1029 -70.1915 0 88.8779 137.546 58.6798 -55.8151 10.4017 19.8258 -4.14341 -163.295 32.7187 163.364 -174.147 72.207 -159.066 1.43553 -7.44533 -25.6489 -65.1414 39.9868 -149.789 11.6664 20.0327 -25.5013 13.9845 -0.901113 -5.51999 -0.607706 3.7132 33.8309 -63.6614 -52.3859 98.3296 -8.53415 12.3192 42.6809 13.4322 0.194146 1.36527 -31.2274 7.51781 84.9942 -15.6475 75.0226 -5.49839 -0.972402 -4.68892 -0.372483 -6.87414 -28.3639 19.0651 -12.9696 -2.51816 67.525 33.843 83.2399 -23.4247 -6.33002 -3.41843 0.993826 10.2091 -20.575 -14.6423 
23.2203 83.9339 51.9331 54.3436 -33.5545 -37.4067 -70.1915 0 88.8779 139.383 59.3155 -56.1276 11.5848 20.3552 -2.82875 -165.752 31.6386 167.176 -170.735 71.1889 -163.149 1.88396 -5.28104 -28.8526 -84.4978 48.4398 -125.624 5.574 34.5821 -14.7704 13.4172 -0.66765 -3.89065 -0.615812 3.82858 33.4517 -66.2789 -51.817 99.8902 -6.97144 11.0136 41.4884 12.4112 0.316774 2.70351 -29.9798 3.15631 78.425 -52.4423 84.5448 36.2079 1.35002 2.02405 -0.154154 -6.80355 -27.4783 18.4014 -19.2048 -0.0654038 67.4953 32.2807 82.8396 -21.2166 -6.74812 -5.09238 1.0537 9.55662 -19.0168 -13.3227 
27.542 83.0245 55.5171 49.4157 -41.9539 -40.3636 -70.1915 0 88.8779 143.731 59.3727 -57.0411 12.6487 21.9557 -3.19911 -168.238 30.2138 170.881 -166.478 69.8666 -167.338 2.42383 -3.03669 -31.3084 -101.654 47.3615 -100.757 -0.119824 40.8892 -4.21455 15.7826 -0.24196 -0.0540419 -0.456347 2.99235 33.6256 -70.7406 -49.8043 103.642 -7.17399 11.1144 41.8184 12.8854 0.388543 3.25193 -26.3005 2.14124 75.1715 -154.912 79.551 148.661 5.11458 5.69458 -0.572679 -7.73161 -36.7729 18.6542 -25.3673 6.17845 69.3944 33.6946 82.928 -21.8803 -7.16425 -6.90243 1.10261 9.1862 -18.8734 -11.68 
31.4797 82.1428 59.7454 41.0159 -48.6884 -46.7071 -70.1915 0 88.8779 147.825 59.8 -58.8017 12.2838 23.8233 -3.33302 -170.594 28.508 172.611 -160.624 68.0206 -172.768 2.62051 -2.25864 -31.9729 -106.612 42.323 -84.1657 -4.56658 38.764 3.02457 15.3523 -0.121509 0.771116 -0.352348 2.69596 32.093 -75.801 -49.5687 108.785 -7.00015 8.92682 47.0945 13.1514 0.492426 4.12011 -17.6609 2.11968 74.0987 -166.044 69.9847 163.356 6.62829 5.5301 -0.830949 -8.11237 -39.1268 17.7154 -31.1575 12.6056 74.1174 28.6359 81.4559 -13.2062 -7.56162 -8.35265 1.1355 9.37244 -19.4903 -11.7619 
35.1969 81.7942 64.892 31.3971 -50.8281 -56.5608 -70.1915 0 88.8779 148.706 61.8396 -59.6955 10.9832 24.9514 -2.7566 -174.174 27.0607 174.883 -159.167 66.6799 -174.51 2.40454 -2.97355 -30.8296 -105.052 41.1314 -72.8905 -8.96369 37.65 7.24337 14.4499 0.0338918 1.91048 -0.303038 2.98341 28.8649 -80.1169 -50.2763 115.509 -3.28121 3.688 55.9679 10.9583 0.470974 4.83997 -4.8958 0.623794 76.0015 -166.887 66.1847 160.189 6.09616 3.53612 -0.779644 -8.35353 -38.7458 15.5965 -36.7901 14.3172 79.7536 19.934 78 -1.3661 -9.7837 -9.64363 1.22684 10.3937 -22.8341 -12.2691 
38.56 83.0825 70.9656 24.397 -53.2506 -67.2169 -70.1915 0 88.8779 151.91 61.5914 -65.6648 8.21472 26.3658 -2.73635 -176.857 26.5205 176.6 -158.297 66.2764 -176.634 2.1049 -4.52264 -30.6457 -101.1 41.0036 -66.187 -11.6353 41.2307 7.18074 13.337 -0.418627 -1.84914 -0.15304 3.06256 23.8093 -82.421 -50.4495 124.187 3.0139 -0.66245 67.4295 10.8163 0.436103 4.52239 2.93815 0.426351 82.6627 -164.209 70.9871 155.671 5.69646 2.14389 -0.750726 -8.5605 -39.5452 14.9478 -46.8764 10.899 86.1966 11.6424 70.3511 11.6476 -10.0974 -10.2946 1.22784 10.5308 -23.5894 -11.79 
41.2398 84.8976 78.1373 19.5558 -52.2661 -75.2452 -70.1915 0 88.8779 152.017 62.6008 -67.6822 5.7128 27.2199 -4.49491 -175.715 26.5633 174.752 -155.198 65.758 -179.194 1.78409 -5.98265 -29.3672 -97.7789 41.9912 -66.1537 -14.7683 43.2535 8.95922 15.2671 -0.41535 -1.37896 0.0230367 2.89684 18.6126 -83.1524 -49.5873 131.89 9.22018 -2.02752 78.3964 11.4584 0.666094 6.65118 8.82853 2.25421 90.4075 -154.476 79.1508 144.773 5.25696 2.71291 -0.674814 -8.54019 -40.6671 16.1548 -55.2919 7.16931 91.0839 6.55153 59.1161 17.2101 -10.1243 -11.0088 1.21659 9.24267 -19.3064 -11.3654 
43.4104 86.6866 86.6244 19.1558 -50.5633 -78.8951 -70.1915 0 88.8779 148.611 64.7295 -66.1052 4.44883 27.4916 -6.09413 -170.533 26.806 172.497 -153.636 65.6 179.815 1.64962 -6.75433 -29.3915 -98.0192 40.5812 -72.729 -16.6046 49.2031 11.4512 14.1591 -0.621382 -3.23756 0.108373 2.29532 16.7672 -81.4526 -48.0322 134.304 15.9107 -1.81361 85.6128 9.24755 0.564965 7.11752 8.08862 3.73364 98.8664 -111.723 85.4427 101.087 3.92205 0.9034 -0.551307 -8.40607 -37.8112 14.1273 -62.9761 4.32596 95.466 3.90311 48.3262 14.0828 -9.77081 -11.0037 1.20758 1.41463 -0.159404 -3.58084 
45.1367 87.5646 95.3449 22.1296 -48.2694 -74.8804 -70.1915 0 88.8779 141.732 66.3946 -56.4177 4.7348 26.1526 -7.90473 -165.209 26.655 169.859 -151.354 64.976 176.596 1.92466 -5.47465 -30.576 -95.592 38.0442 -85.3761 -16.963 49.6341 11.5416 14.1748 -0.656237 -3.50551 0.0707899 2.13624 18.6965 -74.2064 -45.064 132.936 14.9268 -1.61872 86.2078 9.1911 0.645009 8.23048 4.28725 2.43219 101.438 -58.7797 85.2282 46.9567 3.69294 1.17511 -0.511131 -7.90617 -35.0622 14.9387 -64.957 5.66206 92.8039 3.08005 47.5219 7.8412 -3.19972 -1.43692 0.618896 -41.6293 42.609 37.6075 
